<svg width="150" height="150" viewBox="0 0 150 150" fill="none" xmlns="http://www.w3.org/2000/svg">
<path d="M70.1865 71.6308C70.1396 71.6972 70.0973 71.7647 70.0584 71.8357L68.439 74.8146C61.457 87.6627 51.0373 98.3139 38.3482 105.579C38.2921 105.612 38.2361 105.648 38.1823 105.686H38.1811C36.7575 106.703 35.8568 108.299 35.7218 110.044C35.5868 111.789 36.2311 113.504 37.4819 114.729C38.7327 115.953 40.462 116.561 42.2037 116.388C42.4142 116.361 63.429 113.65 75.0015 113.65C86.5714 113.65 107.591 116.361 107.89 116.397C108.062 116.412 108.232 116.419 108.403 116.419H108.402C110.082 116.412 111.679 115.691 112.797 114.437C113.914 113.183 114.447 111.513 114.26 109.843C114.073 108.175 113.187 106.663 111.819 105.686C111.766 105.648 111.71 105.612 111.653 105.579C98.964 98.3144 88.5451 87.6636 81.5622 74.8145L79.944 71.8356C79.9051 71.7647 79.8616 71.6972 79.8147 71.6308C78.7046 70.0767 76.9113 69.1543 75.0001 69.1543C73.0888 69.1543 71.2955 70.0767 70.1854 71.6308L70.1865 71.6308Z" fill="black"/>
<path d="M53.3027 71.0566C53.3027 78.6817 47.1217 84.8639 39.4966 84.8639C31.8715 84.8639 25.6893 78.6817 25.6893 71.0566C25.6893 63.4315 31.8715 57.2493 39.4966 57.2493C47.1217 57.2493 53.3027 63.4315 53.3027 71.0566Z" fill="black"/>
<path d="M73.0283 47.3876C73.0283 55.0127 66.8473 61.195 59.2222 61.195C51.5971 61.195 45.4149 55.0127 45.4149 47.3876C45.4149 39.7625 51.5971 33.5803 59.2222 33.5803C66.8473 33.5803 73.0283 39.7625 73.0283 47.3876Z" fill="black"/>
<path d="M104.584 47.3876C104.584 55.0127 98.4029 61.195 90.7778 61.195C83.1527 61.195 76.9705 55.0127 76.9705 47.3876C76.9705 39.7625 83.1527 33.5803 90.7778 33.5803C98.4029 33.5803 104.584 39.7625 104.584 47.3876Z" fill="black"/>
<path d="M124.31 71.0566C124.31 78.6817 118.129 84.8639 110.503 84.8639C102.878 84.8639 96.6961 78.6817 96.6961 71.0566C96.6961 63.4315 102.878 57.2493 110.503 57.2493C118.129 57.2493 124.31 63.4315 124.31 71.0566Z" fill="black"/>
</svg>
