<svg width="14" height="14" viewBox="0 0 14 14" fill="none" xmlns="http://www.w3.org/2000/svg">
<g clip-path="url(#clip0_1545_12886)">
<path d="M6.00001 10.0801V12.0801C5.99742 12.1552 5.96572 12.2265 5.91162 12.2787C5.85751 12.3309 5.78522 12.3601 5.71001 12.3601H3.61001C3.26472 12.3019 2.95214 12.1208 2.73001 11.8501" stroke="#000001" stroke-linecap="round" stroke-linejoin="round"/>
<path d="M2.73 11.8601C2.73 11.8601 1.64 10.9101 4.17 8.38009H5.3L3.61 5.59009H0.5L1.35 6.68009C1.35 6.68009 0.78 6.78009 0.78 7.57009C1.07897 9.13501 1.74753 10.6058 2.73 11.8601V11.8601Z" stroke="#000001" stroke-linecap="round" stroke-linejoin="round"/>
<path d="M10.35 6.37005L11.83 5.37005C11.8631 5.35544 11.8988 5.3479 11.935 5.3479C11.9712 5.3479 12.0069 5.35544 12.04 5.37005C12.0786 5.37456 12.1158 5.38769 12.1486 5.40846C12.1815 5.42923 12.2093 5.45711 12.23 5.49005L13.38 7.21005C13.4487 7.34832 13.4845 7.50064 13.4845 7.65505C13.4845 7.80946 13.4487 7.96177 13.38 8.10005" stroke="#000001" stroke-linecap="round" stroke-linejoin="round"/>
<path d="M13.42 8C13.42 8 13.1 9.3 9.79001 9V8.13L7.85001 10.67L9.69001 13.5L9.79001 12.17C9.79001 12.17 10.16 12.62 10.79 12.17C11.8466 10.902 12.7309 9.49981 13.42 8V8Z" stroke="#000001" stroke-linecap="round" stroke-linejoin="round"/>
<path d="M4.35 4.28L3 3.66C2.93341 3.6256 2.88211 3.56751 2.8562 3.49719C2.83029 3.42686 2.83165 3.34938 2.86 3.28L4 1C4.07616 0.865012 4.18265 0.749575 4.31108 0.662801C4.4395 0.576028 4.58634 0.520295 4.74 0.5" stroke="#000001" stroke-linecap="round" stroke-linejoin="round"/>
<path d="M4.73999 0.500103C4.73999 0.500103 5.96999 0.500103 7.52999 3.5001L6.71999 4.5001H10.08L11.27 1.3601L9.86999 1.7901C9.84964 1.57313 9.77107 1.36568 9.64258 1.18966C9.51409 1.01365 9.34044 0.875601 9.13999 0.790103C8.45073 0.561922 7.72512 0.463592 6.99999 0.500103H4.73999Z" stroke="#000001" stroke-linecap="round" stroke-linejoin="round"/>
</g>
<defs>
<clipPath id="clip0_1545_12886">
<rect width="14" height="14" fill="white"/>
</clipPath>
</defs>
</svg>
