<svg width="14" height="14" viewBox="0 0 14 14" fill="none" xmlns="http://www.w3.org/2000/svg">
<g clip-path="url(#clip0_1545_11671)">
<path d="M12.36 6.00004H1.64C1.49698 5.99882 1.35537 6.0283 1.22472 6.08648C1.09407 6.14465 0.977419 6.23018 0.882638 6.33728C0.787857 6.44439 0.717152 6.57057 0.675294 6.70733C0.633437 6.84409 0.621401 6.98823 0.639999 7.13004L1.37 12.63C1.40173 12.8721 1.52094 13.0943 1.70515 13.2545C1.88936 13.4148 2.12584 13.5021 2.37 13.5H11.61C11.8542 13.5021 12.0906 13.4148 12.2748 13.2545C12.4591 13.0943 12.5783 12.8721 12.61 12.63L13.34 7.13004C13.3584 6.9899 13.3469 6.84746 13.3062 6.71211C13.2655 6.57675 13.1966 6.45156 13.104 6.34479C13.0114 6.23801 12.8972 6.15208 12.7689 6.09265C12.6407 6.03323 12.5013 6.00166 12.36 6.00004Z" stroke="#000001" stroke-linecap="round" stroke-linejoin="round"/>
<path d="M4.5 8.5V11" stroke="#000001" stroke-linecap="round" stroke-linejoin="round"/>
<path d="M7 8.5V11" stroke="#000001" stroke-linecap="round" stroke-linejoin="round"/>
<path d="M9.5 8.5V11" stroke="#000001" stroke-linecap="round" stroke-linejoin="round"/>
<path d="M9.48 1.54004C10.079 1.64353 10.6279 1.93983 11.043 2.38388C11.4582 2.82792 11.717 3.39542 11.78 4.00004L12 6.00004" stroke="#000001" stroke-linecap="round" stroke-linejoin="round"/>
<path d="M2 6.00006L2.22 4.00006C2.28712 3.39902 2.54772 2.83607 2.96255 2.39599C3.37738 1.95591 3.92397 1.66254 4.52 1.56006" stroke="#000001" stroke-linecap="round" stroke-linejoin="round"/>
<path d="M9.5 1.75C9.5 1.91415 9.46767 2.0767 9.40485 2.22835C9.34203 2.38001 9.24996 2.51781 9.13388 2.63388C9.01781 2.74996 8.88001 2.84203 8.72835 2.90485C8.5767 2.96767 8.41415 3 8.25 3H5.75C5.41848 3 5.10054 2.8683 4.86612 2.63388C4.6317 2.39946 4.5 2.08152 4.5 1.75C4.5 1.41848 4.6317 1.10054 4.86612 0.866117C5.10054 0.631696 5.41848 0.5 5.75 0.5H8.25C8.58152 0.5 8.89946 0.631696 9.13388 0.866117C9.3683 1.10054 9.5 1.41848 9.5 1.75V1.75Z" stroke="#000001" stroke-linecap="round" stroke-linejoin="round"/>
</g>
<defs>
<clipPath id="clip0_1545_11671">
<rect width="14" height="14" fill="white"/>
</clipPath>
</defs>
</svg>
