<svg width="133" height="133" viewBox="0 0 133 133" fill="none" xmlns="http://www.w3.org/2000/svg">
<rect x="2.195" y="2.195" width="128.61" height="128.61" rx="64.305" stroke="#8C8989" stroke-width="4.39"/>
<mask id="path-2-inside-1_2002_6" fill="white">
<path fill-rule="evenodd" clip-rule="evenodd" d="M38.9432 74.3613L67.4182 102.836L93.3046 76.95L95.8932 74.3614C103.042 67.213 103.042 55.6233 95.8932 48.475C88.7449 41.3267 77.1552 41.3267 70.0068 48.475L67.4182 51.0636L64.8295 48.475C57.6812 41.3267 46.0915 41.3267 38.9432 48.475C31.7949 55.6233 31.7948 67.213 38.9432 74.3613Z"/>
</mask>
<path d="M67.4182 102.836L64.3118 105.943L67.4182 109.049L70.5246 105.943L67.4182 102.836ZM38.9432 74.3613L42.0495 71.255V71.255L38.9432 74.3613ZM93.3046 76.95L90.1982 73.8436V73.8436L93.3046 76.95ZM67.4182 51.0636L64.3118 54.17L67.4182 57.2764L70.5245 54.17L67.4182 51.0636ZM38.9432 48.475L35.8368 45.3686V45.3686L38.9432 48.475ZM70.5246 99.73L42.0495 71.255L35.8368 77.4677L64.3118 105.943L70.5246 99.73ZM90.1982 73.8436L64.3118 99.73L70.5246 105.943L96.4109 80.0564L90.1982 73.8436ZM92.7868 71.255L90.1982 73.8436L96.4109 80.0564L98.9996 77.4677L92.7868 71.255ZM92.7868 51.5814C98.2196 57.0141 98.2196 65.8223 92.7868 71.255L98.9996 77.4677C107.863 68.6038 107.863 54.2325 98.9996 45.3686L92.7868 51.5814ZM73.1132 51.5813C78.5459 46.1486 87.3541 46.1486 92.7868 51.5814L98.9996 45.3686C90.1356 36.5047 75.7644 36.5047 66.9005 45.3686L73.1132 51.5813ZM70.5245 54.17L73.1132 51.5813L66.9005 45.3686L64.3118 47.9573L70.5245 54.17ZM61.7232 51.5814L64.3118 54.17L70.5245 47.9573L67.9359 45.3686L61.7232 51.5814ZM42.0495 51.5814C47.4823 46.1486 56.2905 46.1486 61.7232 51.5814L67.9359 45.3686C59.072 36.5047 44.7007 36.5047 35.8368 45.3686L42.0495 51.5814ZM42.0495 71.255C36.6168 65.8223 36.6168 57.0141 42.0495 51.5814L35.8368 45.3686C26.9729 54.2325 26.9729 68.6038 35.8368 77.4677L42.0495 71.255Z" fill="#8C8989" mask="url(#path-2-inside-1_2002_6)"/>
</svg>
