<svg width="133" height="133" viewBox="0 0 133 133" fill="none" xmlns="http://www.w3.org/2000/svg">
<rect x="2.195" y="2.195" width="128.61" height="128.61" rx="64.305" stroke="#8C8989" stroke-width="4.39"/>
<mask id="path-2-inside-1_2002_11" fill="white">
<path d="M38.9434 48.4748C46.0917 41.3267 57.6812 41.3272 64.8294 48.4755L67.4175 51.0636L70.0063 48.4748C77.1546 41.3265 88.7448 41.3266 95.8931 48.4748C103.041 55.6231 103.041 67.2132 95.8931 74.3616L67.4182 102.836L38.9434 74.3616C31.795 67.2132 31.795 55.6231 38.9434 48.4748Z"/>
</mask>
<path d="M38.9434 48.4748L35.8371 45.3684L35.837 45.3685L38.9434 48.4748ZM64.8294 48.4755L67.9358 45.3691V45.3691L64.8294 48.4755ZM67.4175 51.0636L64.3112 54.17L67.4175 57.2764L70.5239 54.17L67.4175 51.0636ZM95.8931 48.4748L98.9994 45.3684L98.9994 45.3684L95.8931 48.4748ZM67.4182 102.836L64.3119 105.943L67.4182 109.049L70.5246 105.943L67.4182 102.836ZM38.9434 74.3616L42.0497 71.2552V71.2552L38.9434 74.3616ZM38.9434 48.4748L42.0497 51.5812C47.4823 46.1488 56.2902 46.149 61.7231 51.5819L64.8294 48.4755L67.9358 45.3691C59.0721 36.5055 44.7011 36.5046 35.8371 45.3684L38.9434 48.4748ZM64.8294 48.4755L61.7231 51.5819L64.3112 54.17L67.4175 51.0636L70.5239 47.9573L67.9358 45.3691L64.8294 48.4755ZM67.4175 51.0636L70.5239 54.17L73.1127 51.5812L70.0063 48.4748L66.9 45.3685L64.3112 47.9573L67.4175 51.0636ZM70.0063 48.4748L73.1127 51.5812C78.5454 46.1485 87.354 46.1486 92.7868 51.5812L95.8931 48.4748L98.9994 45.3684C90.1355 36.5047 75.7639 36.5045 66.9 45.3685L70.0063 48.4748ZM95.8931 48.4748L92.7867 51.5812C98.2194 57.0139 98.2194 65.8225 92.7867 71.2552L95.8931 74.3616L98.9994 77.4679C107.863 68.604 107.863 54.2324 98.9994 45.3684L95.8931 48.4748ZM95.8931 74.3616L92.7867 71.2552L64.3119 99.73L67.4182 102.836L70.5246 105.943L98.9994 77.4679L95.8931 74.3616ZM67.4182 102.836L70.5246 99.73L42.0497 71.2552L38.9434 74.3616L35.837 77.4679L64.3119 105.943L67.4182 102.836ZM38.9434 74.3616L42.0497 71.2552C36.617 65.8225 36.617 57.0139 42.0497 51.5812L38.9434 48.4748L35.837 45.3685C26.9731 54.2324 26.9731 68.604 35.837 77.4679L38.9434 74.3616Z" fill="#ED3636" mask="url(#path-2-inside-1_2002_11)"/>
</svg>
