<svg width="150" height="150" viewBox="0 0 150 150" fill="none" xmlns="http://www.w3.org/2000/svg">
<path d="M45.4131 84.7617V106.558C45.4131 107.648 46.2966 108.53 47.3849 108.53H71.0547C71.6613 108.53 72.2346 108.249 72.6088 107.771C72.9831 107.293 73.1147 106.668 72.9682 106.079L66.643 80.7801L73.0265 79.4125V86.834C73.0265 87.9223 73.91 88.8058 74.9983 88.8058C76.0878 88.8058 76.9713 87.9224 76.9713 86.834V78.5667L103.025 72.983C103.935 72.7885 104.585 71.9851 104.585 71.0547V55.2757C104.585 54.3453 103.935 53.5408 103.025 53.3463L56.027 43.2755C50.1995 40.7406 43.5541 40.8894 37.8456 43.6817C32.1371 46.4741 27.9406 51.6297 26.3648 57.7867C24.79 63.9437 25.994 70.4816 29.6595 75.6727C33.3251 80.8638 39.0837 84.1861 45.4124 84.7615L45.4131 84.7617ZM47.3849 57.2479C48.9551 57.2479 50.4599 57.8716 51.57 58.9805C52.6789 60.0906 53.3026 61.5955 53.3026 63.1644C53.3026 64.7345 52.6789 66.2394 51.57 67.3495C50.4599 68.4584 48.955 69.0821 47.3861 69.0821C45.816 69.0821 44.3111 68.4584 43.201 67.3495C42.0921 66.2394 41.4684 64.7345 41.4684 63.1656C41.4707 61.5966 42.0944 60.0929 43.2033 58.9829C44.3123 57.8739 45.8161 57.2502 47.3849 57.2479Z" fill="black"/>
<path d="M111.595 56.918L123.429 49.0283L123.43 49.0272C124.332 48.4218 124.575 47.2007 123.972 46.2955C123.369 45.3914 122.147 45.1454 121.241 45.745L109.408 53.6347C108.501 54.2389 108.255 55.4635 108.86 56.371C109.464 57.2773 110.688 57.5222 111.595 56.918Z" fill="black"/>
<path d="M122.338 61.1924H110.503C109.414 61.1924 108.531 62.0759 108.531 63.1654C108.531 64.2548 109.414 65.1372 110.503 65.1372H122.338C123.426 65.1372 124.31 64.2548 124.31 63.1654C124.31 62.0759 123.426 61.1924 122.338 61.1924Z" fill="black"/>
<path d="M111.595 69.4131C111.16 69.1224 110.628 69.0171 110.114 69.1201C109.601 69.222 109.15 69.5241 108.86 69.9601C108.256 70.8665 108.501 72.091 109.408 72.6952L121.242 80.5849H121.241C122.147 81.1891 123.372 80.9442 123.977 80.0378C124.582 79.1315 124.337 77.907 123.43 77.3027L111.595 69.4131Z" fill="black"/>
</svg>
