<svg width="150" height="150" viewBox="0 0 150 150" fill="none" xmlns="http://www.w3.org/2000/svg">
<mask id="mask0_3001_74" style="mask-type:luminance" maskUnits="userSpaceOnUse" x="1" y="16" width="148" height="118">
<path d="M1.19824 16.6992H148.799V133.301H1.19824V16.6992Z" fill="white"/>
</mask>
<g mask="url(#mask0_3001_74)">
<path d="M24.2901 16.7783C18.7603 16.7783 15.8889 17.8152 14.5043 19.0626C13.1207 20.3111 12.5531 22.1663 12.5531 25.4106V73.563V73.627H15.3867V72.1359C15.3867 67.9417 17.7201 64.3001 21.1303 62.334C21.1269 62.2917 21.1246 62.2482 21.1246 62.2059V42.1524C21.1246 40.8249 21.0388 38.4136 22.0275 35.9485C23.0209 33.4835 25.8109 31.0252 29.568 31.0252H63.6197C67.2854 31.0252 70.1107 33.0874 71.2038 35.4048C72.299 37.7222 72.2155 39.9766 72.2132 41.2264L72.1708 60.7809H77.8872V42.1533C77.8872 40.8258 77.8014 38.4145 78.7902 35.9494C79.7835 33.4843 82.5736 31.0261 86.3306 31.0261H120.403C124.068 31.0261 126.872 33.0883 127.965 35.4057C129.06 37.7231 128.977 39.9774 128.974 41.2272L128.932 62.2065C128.929 62.2602 128.926 62.314 128.922 62.3678C132.301 64.3431 134.609 67.965 134.609 72.1366V73.6277H137.443V73.5636V26.671C137.443 22.7435 136.802 20.4671 135.453 19.1259C134.102 17.7835 131.405 16.781 126.061 16.781L24.2901 16.7783ZM29.5624 36.682C27.7073 36.682 27.6878 37.0505 27.2781 38.0679C26.8707 39.0853 26.7952 40.8271 26.7952 42.1534V60.7821H49.8366C53.5365 60.8679 53.5365 66.3737 49.8366 66.4595H26.7345C23.5406 66.4595 21.0571 68.9429 21.0571 72.137V76.3118C21.0651 76.4296 21.0651 76.5487 21.0571 76.6665V101.936C21.0571 105.13 23.5405 107.614 26.7345 107.614H123.253C126.447 107.614 128.931 105.13 128.931 101.936V72.1384C128.931 68.9445 126.447 66.461 123.253 66.461H60.8097C56.9381 66.5468 56.9381 60.6977 60.8097 60.7835H66.4872L66.5295 41.2129C66.5318 40.009 66.4219 38.5899 66.0695 37.837C65.7147 37.084 65.6529 36.6835 63.6193 36.6835L29.5624 36.682ZM86.328 36.682C84.4729 36.682 84.4763 37.0505 84.0655 38.0679C83.6581 39.0853 83.5608 40.8271 83.5608 42.1534V60.7821H123.252L123.295 41.2115C123.297 40.0075 123.187 38.5885 122.834 37.8356C122.48 37.0826 122.441 36.682 120.406 36.682H86.328ZM6.87485 79.3061C3.6809 79.3061 1.19741 81.7894 1.19741 84.9835V116.141C1.19741 117.762 2.42535 118.974 4.047 118.974H145.97C147.591 118.974 148.798 117.764 148.798 116.141V84.9835C148.798 81.7896 146.314 79.3061 143.12 79.3061H134.61V101.937C134.61 108.178 129.497 113.292 123.255 113.292H26.7369C20.4952 113.292 15.382 108.178 15.382 101.937V79.3061H6.87485ZM1.19741 124.119V127.539C1.19741 130.733 3.68079 133.222 6.87485 133.222H143.12C146.314 133.222 148.797 130.734 148.797 127.539V124.124C147.907 124.444 146.964 124.651 145.97 124.651H4.04673C3.04536 124.651 2.09436 124.441 1.19714 124.119L1.19741 124.119Z" fill="black"/>
</g>
</svg>
