<svg width="150" height="150" viewBox="0 0 150 150" fill="none" xmlns="http://www.w3.org/2000/svg">
<path d="M27.6621 116.42H35.5529C36.6413 116.42 37.5248 115.538 37.5248 114.448V108.53H112.475V114.448C112.475 114.971 112.683 115.472 113.053 115.842C113.423 116.213 113.925 116.42 114.448 116.42H122.338C123.426 116.42 124.309 115.536 124.309 114.448V78.9462C124.309 77.8567 123.426 76.9732 122.338 76.9732H115.08C114.56 76.6116 113.665 76.0199 112.475 75.3058V35.5529C112.475 35.0299 112.268 34.5286 111.897 34.159C111.528 33.7894 111.026 33.5811 110.503 33.5811H102.614C102.091 33.5811 101.588 33.7893 101.219 34.159C100.849 34.5286 100.641 35.0299 100.641 35.5529V37.5259H49.3595V35.5529C49.3595 34.4646 48.476 33.5811 47.3877 33.5811H39.4968C38.4085 33.5811 37.525 34.4645 37.525 35.5529V75.3087C36.3348 76.0217 35.4399 76.6134 34.9203 76.9761L27.6626 76.975C26.5743 76.975 25.6908 77.8585 25.6908 78.948V114.45C25.6908 115.538 26.5743 116.422 27.6626 116.422L27.6621 116.42ZM49.3591 49.3594H100.64V53.3042H49.3591V49.3594ZM49.3591 65.1384H100.64V69.7219C84.0923 63.6109 65.906 63.6109 49.3591 69.7219V65.1384ZM37.5246 91.8135C37.9194 91.5503 38.4905 91.1898 39.168 90.779V90.7801C50.0055 84.3246 62.3858 80.9176 75.001 80.9176C87.6148 80.9176 99.9948 84.3246 110.834 90.7801C111.511 91.1898 112.081 91.5515 112.477 91.8147V96.6979H37.5272L37.5246 91.8135Z" fill="black"/>
</svg>
