<svg width="14" height="14" viewBox="0 0 14 14" fill="none" xmlns="http://www.w3.org/2000/svg">
<path d="M7 12.2499C7.72349 12.2499 8.31 11.6634 8.31 10.9399C8.31 10.2164 7.72349 9.62988 7 9.62988C6.27651 9.62988 5.69 10.2164 5.69 10.9399C5.69 11.6634 6.27651 12.2499 7 12.2499Z" stroke="#000001" stroke-linecap="round" stroke-linejoin="round"/>
<path d="M4.53 7.99989C4.85517 7.66606 5.24392 7.40073 5.67329 7.21957C6.10266 7.0384 6.56397 6.94507 7.03 6.94507C7.49603 6.94507 7.95734 7.0384 8.38671 7.21957C8.81608 7.40073 9.20482 7.66606 9.53 7.99989" stroke="#000001" stroke-linecap="round" stroke-linejoin="round"/>
<path d="M2.36 6.30987C2.96871 5.69761 3.69246 5.21172 4.48963 4.88017C5.28679 4.54862 6.14164 4.37793 7.005 4.37793C7.86837 4.37793 8.72321 4.54862 9.52037 4.88017C10.3175 5.21172 11.0413 5.69761 11.65 6.30987" stroke="#000001" stroke-linecap="round" stroke-linejoin="round"/>
<path d="M0.5 4.44997C1.35343 3.59609 2.36674 2.91874 3.48204 2.4566C4.59733 1.99446 5.79275 1.75659 7 1.75659C8.20725 1.75659 9.40267 1.99446 10.518 2.4566C11.6333 2.91874 12.6466 3.59609 13.5 4.44997" stroke="#000001" stroke-linecap="round" stroke-linejoin="round"/>
</svg>
